<?xml version="1.0" encoding="UTF-8" standalone="no"?><!DOCTYPE svg PUBLIC "-//W3C//DTD SVG 1.1//EN" "http://www.w3.org/Graphics/SVG/1.1/DTD/svg11.dtd"><svg width="100%" height="100%" viewBox="240 80 325 325" version="1.1" xmlns="http://www.w3.org/2000/svg" xmlns:xlink="http://www.w3.org/1999/xlink" xml:space="preserve" xmlns:serif="http://www.serif.com/" style="fill-rule:evenodd;clip-rule:evenodd;stroke-linecap:round;stroke-linejoin:round;"><g><g><path d="M533.083,301.361l-0,-118.296c-0.011,-10.542 -5.658,-20.311 -14.787,-25.581l-103.509,-59.148c-9.139,-5.277 -20.435,-5.277 -29.574,-0l-103.509,59.148c-9.129,5.27 -14.776,15.039 -14.787,25.581l0,118.296c0.011,10.542 5.658,20.31 14.787,25.581l103.509,59.148c9.139,5.277 20.435,5.277 29.574,0l103.509,-59.148c9.129,-5.271 14.776,-15.039 14.787,-25.581Z" style="fill:none;fill-rule:nonzero;stroke:#000;stroke-width:29.57px;"/><path d="M333.459,127.022l66.541,38.447l66.541,-38.447" style="fill:none;fill-rule:nonzero;stroke:#000;stroke-width:29.57px;stroke-linecap:butt;"/><path d="M333.459,357.404l-0,-76.745l-66.542,-38.446" style="fill:none;fill-rule:nonzero;stroke:#000;stroke-width:29.57px;stroke-linecap:butt;"/><path d="M270.91,167.687l129.09,74.674l129.09,-74.674" style="fill:none;fill-rule:nonzero;stroke:#000;stroke-width:29.57px;stroke-linecap:butt;"/><path d="M400,391.266l0,-149.053" style="fill:none;fill-rule:nonzero;stroke:#000;stroke-width:29.57px;stroke-linecap:butt;"/><path d="M454.321,227.276l24.84,-14.192l39.277,99.232l-24.286,13.876l-3.416,-8.993l-35.124,20.067l-3.415,12.897l-37.154,21.227l39.278,-144.114Zm27.721,68.074l-10.466,-31.116l-9.877,43.194l20.343,-12.078Z" style="fill-rule:nonzero;fill:#000;"/></g></g></svg>