<?xml version="1.0" encoding="UTF-8"?>
<svg width="16px" height="16px" viewBox="0 0 16 16" version="1.1" xmlns="http://www.w3.org/2000/svg" xmlns:xlink="http://www.w3.org/1999/xlink">
    <title>348C90B3-7378-49C6-A10E-32759B703841</title>
    <g id="Assets" stroke="none" stroke-width="1" fill="none" fill-rule="evenodd">
        <g id="Icons" transform="translate(-418.000000, -425.000000)" fill="#FFFFFF">
            <g id="07-Icons/Social/Icon-only/Facebook" transform="translate(418.000000, 425.000000)">
                <path d="M3.55748262,1.78741754 C3.55748262,2.26175167 3.40419582,2.67244897 3.09761333,3.01952278 C2.79103306,3.36659658 2.35430483,3.54013015 1.78741866,3.54013015 C1.24367043,3.54013015 0.809835398,3.37238074 0.485900217,3.03687525 C0.161965125,2.70137197 0,2.29645883 0,1.82212692 C0,1.3477928 0.159072891,0.925524963 0.477223538,0.555314534 C0.795373897,0.185104104 1.23210123,0 1.78741866,0 C2.33116599,0 2.75921798,0.176425649 3.0715824,0.52928361 C3.38394905,0.88214157 3.54591431,1.30151511 3.55748262,1.78741754 Z M0,16 L0,4.44251627 L3.55748262,4.44251627 L3.55748262,16 L0,16 Z M5.32754992,8.39913232 C5.32754992,7.71655525 5.31887146,7.0831546 5.30151899,6.49891485 C5.2841643,5.91467509 5.26391976,5.37961177 5.24078091,4.89370933 L8.43383948,4.89370933 L8.5900228,6.4208243 L8.65943712,6.4208243 C8.89081892,6.06218218 9.28416153,5.6746215 9.8394805,5.25813338 C10.3947973,4.84164748 11.1352092,4.63340453 12.0607386,4.63340453 C12.6160554,4.63340453 13.1366561,4.72884977 13.6225585,4.91974025 C14.1084632,5.11063073 14.5249447,5.40274617 14.8720162,5.79609544 C15.21909,6.18944472 15.493853,6.68401673 15.6963118,7.27982702 C15.8987728,7.87563509 16,8.57844783 16,9.38828744 L16,16 L12.4425152,16 L12.4425152,9.9088926 C12.4425152,9.2031789 12.3007967,8.61026957 12.017353,8.13015129 C11.7339094,7.65003301 11.2856151,7.4099772 10.6724523,7.4099772 C10.1981182,7.4099772 9.83080427,7.56326622 9.57049947,7.86984871 C9.31019467,8.17642898 9.12219849,8.48589911 9.0065087,8.79826353 C8.96023101,8.91395554 8.92841593,9.0469978 8.91106346,9.19739696 C8.89370877,9.34779613 8.88503254,9.49819085 8.88503254,9.64859002 L8.88503254,16 L5.32754992,16 L5.32754992,8.39913232 Z" id="Fill-1"></path>
            </g>
        </g>
    </g>
</svg>