<?xml version="1.0" encoding="UTF-8"?>
<svg width="23px" height="23px" viewBox="0 0 23 23" version="1.1" xmlns="http://www.w3.org/2000/svg" xmlns:xlink="http://www.w3.org/1999/xlink">
    <title>B75B7396-5837-4BD1-94DB-37DE8BA94692</title>
    <g id="Assets" stroke="none" stroke-width="1" fill="none" fill-rule="evenodd" stroke-linecap="round" stroke-linejoin="round">
        <g id="Icons" transform="translate(-737.000000, -215.000000)" stroke="#000000">
            <g id="07-Icons/Arrow" transform="translate(737.000000, 215.000000)">
                <g id="Group-11" transform="translate(1.000000, 1.000000)">
                    <path d="M21,3.65217391 C21,5.66908696 19.3647391,7.30434783 17.3478261,7.30434783 C15.330913,7.30434783 13.6956522,5.66908696 13.6956522,3.65217391 C13.6956522,1.63526087 15.330913,0 17.3478261,0 C19.3647391,0 21,1.63526087 21,3.65217391 Z" id="Stroke-1"></path>
                    <path d="M7.30434783,10.0434783 C7.30434783,12.0603913 5.66908696,13.6956522 3.65217391,13.6956522 C1.63526087,13.6956522 0,12.0603913 0,10.0434783 C0,8.02656522 1.63526087,6.39130435 3.65217391,6.39130435 C5.66908696,6.39130435 7.30434783,8.02656522 7.30434783,10.0434783 Z" id="Stroke-3"></path>
                    <path d="M21,17.3478261 C21,19.3647391 19.3647391,21 17.3478261,21 C15.330913,21 13.6956522,19.3647391 13.6956522,17.3478261 C13.6956522,15.330913 15.330913,13.6956522 17.3478261,13.6956522 C19.3647391,13.6956522 21,15.330913 21,17.3478261 Z" id="Stroke-5"></path>
                    <line x1="13.6956522" y1="15.5217391" x2="7.30434783" y2="11.8695652" id="Stroke-7"></line>
                    <line x1="13.6956522" y1="4.56521739" x2="7.30434783" y2="8.2173913" id="Stroke-9"></line>
                </g>
            </g>
        </g>
    </g>
</svg>