<?xml version="1.0" encoding="UTF-8"?>
<svg width="10px" height="19px" viewBox="0 0 10 19" version="1.1" xmlns="http://www.w3.org/2000/svg" xmlns:xlink="http://www.w3.org/1999/xlink">
    <title>15573E3B-4E89-4029-BEE2-3CC1042B3561</title>
    <g id="Assets" stroke="none" stroke-width="1" fill="none" fill-rule="evenodd">
        <g id="Icons" transform="translate(-260.000000, -423.000000)" fill="#000000">
            <g id="07-Icons/Social/Icon-only/Facebook" transform="translate(260.000000, 423.000000)">
                <path d="M10,0.137018143 L10,3.1514403 L8.18287007,3.1514403 C7.51928565,3.1514403 7.07176011,3.28845844 6.84027789,3.56249984 C6.60879568,3.83653868 6.49305457,4.24759311 6.49305457,4.79567335 L6.49305457,6.95372636 L9.88425889,6.95372636 L9.43287039,10.3335328 L6.49305457,10.3335328 L6.49305457,19 L2.95138915,19 L2.95138915,10.3335328 L0,10.3335328 L0,6.95372636 L2.95138915,6.95372636 L2.95138915,4.4645417 C2.95138915,3.04866966 3.35261876,1.95062415 4.15509355,1.17037193 C4.95756574,0.390119715 6.02622718,0 7.36111158,0 C8.49537598,0 9.37499595,0.0456727142 10,0.137018143 Z" id="Fill-1"></path>
            </g>
        </g>
    </g>
</svg>