<?xml version="1.0" encoding="UTF-8"?>
<svg width="16px" height="16px" viewBox="0 0 16 16" version="1.1" xmlns="http://www.w3.org/2000/svg" xmlns:xlink="http://www.w3.org/1999/xlink">
    <title>02106B11-4FBD-4FF0-9A3A-1804F4CE4A55</title>
    <g id="Assets" stroke="none" stroke-width="1" fill="none" fill-rule="evenodd">
        <g id="Icons" transform="translate(-295.000000, -425.000000)" fill="#000000">
            <g id="07-Icons/Social/Icon-only/Facebook" transform="translate(295.000000, 425.000000)">
                <path d="M9.88541613,9.88541613 C10.4062534,9.36458114 10.6666674,8.73611415 10.6666674,8.00000117 C10.6666674,7.26388585 10.4062534,6.63541886 9.88541613,6.11458387 C9.36458114,5.59374655 8.73611415,5.33333256 7.99999883,5.33333256 C7.26388585,5.33333256 6.63541886,5.59374655 6.11458387,6.11458387 C5.59374655,6.63541886 5.33333256,7.26388585 5.33333256,8.00000117 C5.33333256,8.73611415 5.59374655,9.36458114 6.11458387,9.88541613 C6.63541886,10.4062534 7.26388585,10.6666674 7.99999883,10.6666674 C8.73611415,10.6666674 9.36458114,10.4062534 9.88541613,9.88541613 Z M10.9062494,5.09375056 C11.7048654,5.89236421 12.1041664,6.86110586 12.1041664,8.00000117 C12.1041664,9.13889414 11.7048654,10.1076358 10.9062494,10.9062494 C10.1076358,11.7048654 9.13889414,12.1041664 7.99999883,12.1041664 C6.86110586,12.1041664 5.89236421,11.7048654 5.09375056,10.9062494 C4.29513458,10.1076358 3.89583359,9.13889414 3.89583359,8.00000117 C3.89583359,6.86110586 4.29513458,5.89236421 5.09375056,5.09375056 C5.89236421,4.29513458 6.86110586,3.89583359 7.99999883,3.89583359 C9.13889414,3.89583359 10.1076358,4.29513458 10.9062494,5.09375056 Z M12.9479161,3.05208394 C13.1354181,3.2395836 13.2291667,3.46527759 13.2291667,3.72916592 C13.2291667,3.99305658 13.1354181,4.21874825 12.9479161,4.40625024 C12.7604164,4.59375224 12.5347224,4.6875009 12.2708341,4.6875009 C12.0069434,4.6875009 11.7812518,4.59375224 11.5937498,4.40625024 C11.4062478,4.21874825 11.3124991,3.99305658 11.3124991,3.72916592 C11.3124991,3.46527759 11.4062478,3.2395836 11.5937498,3.05208394 C11.7812518,2.86458194 12.0069434,2.77083328 12.2708341,2.77083328 C12.5347224,2.77083328 12.7604164,2.86458194 12.9479161,3.05208394 Z M8.79166615,1.4375013 C8.31249749,1.4375013 8.0486115,1.4375013 7.99999883,1.4375013 C7.9513885,1.4375013 7.68576651,1.4357653 7.20312585,1.43229097 C6.72048286,1.42881897 6.3541682,1.42881897 6.10416554,1.43229097 C5.85416521,1.4357653 5.51909855,1.4461813 5.09895856,1.4635413 C4.67881624,1.48090364 4.32118158,1.51562597 4.02604058,1.5677083 C3.73090192,1.61979297 3.48263993,1.6840273 3.28124993,1.76041596 C2.93402661,1.89930763 2.62847428,2.10069296 2.36458362,2.36458362 C2.10069319,2.62847428 1.89930623,2.93402661 1.76041666,3.28124993 C1.6840273,3.48263993 1.6197918,3.73090192 1.5677083,4.02604292 C1.5156248,4.32118158 1.48090294,4.67881857 1.46354154,5.09895856 C1.44618037,5.51909855 1.4357639,5.85416521 1.43229167,6.10416787 C1.42881944,6.3541682 1.42881944,6.72048286 1.43229167,7.20312585 C1.4357639,7.68576651 1.4374999,7.9513885 1.4374999,8.00000117 C1.4374999,8.0486115 1.4357639,8.31423349 1.43229167,8.79687415 C1.42881944,9.27951714 1.42881944,9.6458318 1.43229167,9.89583446 C1.4357639,10.1458348 1.44618037,10.4809014 1.46354154,10.9010414 C1.48090294,11.3211838 1.5156248,11.6788184 1.5677083,11.9739594 C1.6197918,12.2690981 1.6840273,12.5173601 1.76041666,12.7187501 C1.89930623,13.0659734 2.10069319,13.3715257 2.36458362,13.6354164 C2.62847428,13.8993068 2.93402661,14.1006938 3.28124993,14.2395833 C3.48263993,14.3159727 3.73090192,14.3802082 4.02604058,14.4322917 C4.32118158,14.4843752 4.67881624,14.5190971 5.09895856,14.5364585 C5.51909855,14.5538196 5.85416521,14.5642361 6.10416554,14.5677083 C6.3541682,14.5711806 6.72048286,14.5711806 7.20312585,14.5677083 C7.68576651,14.5642361 7.9513885,14.5625001 7.99999883,14.5625001 C8.0486115,14.5625001 8.31423349,14.5642361 8.79687415,14.5677083 C9.27951714,14.5711806 9.6458318,14.5711806 9.89583213,14.5677083 C10.1458348,14.5642361 10.4809014,14.5538196 10.9010414,14.5364585 C11.3211814,14.5190971 11.6788184,14.4843752 11.9739571,14.4322917 C12.2690981,14.3802082 12.5173601,14.3159727 12.7187501,14.2395833 C13.0659734,14.1006938 13.3715257,13.8993068 13.6354164,13.6354164 C13.899307,13.3715257 14.1006924,13.0659734 14.239584,12.7187501 C14.3159727,12.5173601 14.380207,12.2690981 14.4322917,11.9739594 C14.484374,11.6788184 14.5190964,11.3211838 14.5364587,10.9010414 C14.5538187,10.4809014 14.5642347,10.1458348 14.567709,9.89583446 C14.571181,9.6458318 14.571181,9.27951714 14.567709,8.79687415 C14.5642347,8.31423349 14.5624987,8.0486115 14.5624987,8.00000117 C14.5624987,7.9513885 14.5642347,7.68576651 14.567709,7.20312585 C14.571181,6.72048286 14.571181,6.3541682 14.567709,6.10416787 C14.5642347,5.85416521 14.5538187,5.51909855 14.5364587,5.09895856 C14.5190964,4.67881857 14.484374,4.32118158 14.4322917,4.02604292 C14.380207,3.73090192 14.3159727,3.48263993 14.239584,3.28124993 C14.1006924,2.93402661 13.899307,2.62847428 13.6354164,2.36458362 C13.3715257,2.10069296 13.0659734,1.89930763 12.7187501,1.76041596 C12.5173601,1.6840273 12.2690981,1.61979297 11.9739571,1.5677083 C11.6788184,1.51562597 11.3211814,1.48090364 10.9010414,1.4635413 C10.4809014,1.4461813 10.1458348,1.4357653 9.89583213,1.43229097 C9.6458318,1.42881897 9.27778114,1.43055497 8.79166615,1.4375013 Z M15.9479153,4.6979169 C15.9826377,5.30903089 16,6.40971553 16,8 C16,9.5902868 15.9826377,10.6909691 15.9479153,11.3020831 C15.8784707,12.7465354 15.4479193,13.8645793 14.6562497,14.6562499 C13.86458,15.4479207 12.7465354,15.8784719 11.3020831,15.9479167 C10.6909691,15.9826391 9.59028447,16 8,16 C6.4097132,16 5.30903089,15.9826391 4.6979169,15.9479167 C3.2534646,15.8784719 2.13542066,15.4479207 1.34375007,14.6562499 C0.552079255,13.8645793 0.121528117,12.7465354 0.0520833356,11.3020831 C0.0173609376,10.6909691 0,9.5902868 0,8 C0,6.40971553 0.0173609376,5.30903089 0.0520833356,4.6979169 C0.121528117,3.2534646 0.552079255,2.13541996 1.34375007,1.34375031 C2.13542066,0.552080655 3.2534646,0.121529331 4.6979169,0.0520846656 C5.30903089,0.017362333 6.4097132,0 8,0 C9.59028447,0 10.6909691,0.017362333 11.3020831,0.0520846656 C12.7465354,0.121529331 13.86458,0.552080655 14.6562497,1.34375031 C15.4479193,2.13541996 15.8784707,3.2534646 15.9479153,4.6979169 Z" id="Fill-1"></path>
            </g>
        </g>
    </g>
</svg>