<?xml version="1.0" encoding="UTF-8"?>
<svg width="16px" height="16px" viewBox="0 0 16 16" version="1.1" xmlns="http://www.w3.org/2000/svg" xmlns:xlink="http://www.w3.org/1999/xlink">
    <title>A7BE5661-3ECB-4AAA-9655-77DF2B83EAEF</title>
    <g id="Assets" stroke="none" stroke-width="1" fill="none" fill-rule="evenodd">
        <g id="Icons" transform="translate(-377.000000, -425.000000)" fill="#FFFFFF">
            <g id="07-Icons/Social/Icon-only/Facebook" transform="translate(377.000000, 425.000000)">
                <path d="M14.6258613,1.26495726 C14.2024434,0.843303385 13.7275391,0.529915624 13.2011285,0.324787419 C12.6747179,0.108261744 12.1368733,0 11.5875769,0 C11.0382806,0 10.5004359,0.108261744 9.97402537,0.324787419 C9.44761482,0.529915624 8.97271047,0.843303385 8.54929257,1.26495726 L7.22755462,2.4957265 C7.09023109,2.6438761 7.02156932,2.81481409 7.02156932,3.00854701 C7.02156932,3.20227993 7.09023109,3.37321791 7.22755462,3.52136752 C7.37632325,3.66951713 7.54797548,3.74359084 7.74251789,3.74359084 C7.9370603,3.74359084 8.10871252,3.66951713 8.25748115,3.52136752 L9.51055733,2.29059829 C10.0941868,1.74358756 10.7750764,1.47008547 11.553246,1.47008547 C12.3314157,1.47008547 13.0180268,1.74358756 13.6130991,2.29059829 C14.1967263,2.83760903 14.4913985,3.5156655 14.4971199,4.32478523 C14.5028414,5.13390715 14.2310572,5.81196362 13.6817609,6.35897436 L11.4845843,8.54700855 C11.4502534,8.59259186 11.4016189,8.64387501 11.3386786,8.70085361 C11.2757383,8.75783439 11.2271037,8.80911754 11.1927729,8.85470085 C10.5290388,9.32194024 9.7966539,9.5042735 8.99559627,9.4017094 C8.19453644,9.2991453 7.55942277,8.91738147 7.09023109,8.25641135 C6.97579334,8.11965703 6.81272329,8.03418803 6.60101653,8 C6.38930758,7.96581197 6.20907319,8.00569764 6.06030456,8.11965921 C5.91153593,8.22222332 5.82284909,8.38176602 5.79423965,8.59829169 C5.76563022,8.81481518 5.80854327,8.99715063 5.92298102,9.14530024 C6.35784182,9.72649901 6.88710431,10.1623926 7.51078387,10.452992 C8.13446563,10.7435914 8.77244222,10.8888878 9.42473122,10.8888878 C9.87103491,10.8888878 10.3230535,10.8148163 10.7808023,10.6666667 C11.2385488,10.5185171 11.6676794,10.3019958 12.0682093,10.017094 C12.1368711,9.93732048 12.2112543,9.86324896 12.2913612,9.7948707 C12.3714658,9.72649463 12.4687348,9.65242311 12.5831726,9.57264957 L14.7803492,7.38461538 C15.2037649,6.9629615 15.5127406,6.4843334 15.7072831,5.94871795 C15.9132684,5.4131025 16.0105396,4.86325169 15.9990967,4.29914585 C15.9876516,3.73504 15.8674946,3.19088684 15.6386213,2.66666667 C15.409748,2.13105121 15.072165,1.66382058 14.6258613,1.26495726 Z M7.60519435,12.4273515 L6.35211598,13.6581208 C5.76848874,14.205131 5.08473837,14.4786325 4.30084728,14.4786325 C3.516954,14.4786325 2.83320363,14.205131 2.2495764,13.6581208 C1.66594851,13.1111078 1.3712779,12.4302025 1.36555602,11.6153852 C1.35983435,10.8005656 1.63161762,10.1196603 2.18091463,9.57264957 L4.37809122,7.38461538 C4.41242211,7.35042735 4.46105661,7.30199521 4.52399693,7.23931679 C4.58693725,7.17663836 4.63557176,7.12820622 4.66990484,7.09401819 C5.00177079,6.87749251 5.35079888,6.71794981 5.71699571,6.61538571 C6.08319255,6.51281942 6.46655152,6.47863138 6.86708144,6.51281942 C7.26760915,6.58119768 7.63094087,6.70940116 7.95708537,6.89743644 C8.28322987,7.08547173 8.55501402,7.34472752 8.77244442,7.67521258 C8.88688216,7.82336219 9.04995222,7.91168 9.26165897,7.94017039 C9.47336792,7.96866079 9.65360232,7.93162393 9.80237095,7.82905983 C9.93969449,7.71509826 10.0255206,7.55270674 10.0598515,7.34188089 C10.0941846,7.13105285 10.0541322,6.95156841 9.93969449,6.8034188 C9.57349765,6.32478414 9.1443649,5.94302031 8.65228742,5.65812075 C8.16020775,5.37321901 7.63952743,5.1965812 7.09023109,5.12820513 C6.54093474,5.01424356 5.98592354,5.02848985 5.4251843,5.17093962 C4.86444286,5.31339159 4.34376254,5.56694974 3.86312796,5.93162503 C3.79446619,6.00000109 3.7229437,6.07122379 3.64856048,6.14529969 C3.57417507,6.2193734 3.49693333,6.29059829 3.41682646,6.35897436 L1.21964987,8.54700855 C0.807677277,8.99145518 0.498702329,9.48717621 0.29271599,10.0341891 C0.0867296514,10.5698024 -0.0105403014,11.1196554 0.000903473213,11.6837612 C0.0123472478,12.2478671 0.126782291,12.7920202 0.344212316,13.3162404 C0.561642276,13.8518546 0.882060714,14.3304822 1.30547708,14.7521368 C1.74033722,15.1509992 2.22382549,15.4586884 2.75595749,15.6752137 C3.2880873,15.891739 3.82879488,16 4.37809122,16 C4.92738757,16 5.46809515,15.891739 6.00022496,15.6752137 C6.53235696,15.4586884 7.01584567,15.1509992 7.45070427,14.7521368 L8.70378265,13.5213686 C8.84110619,13.373219 8.90976796,13.202281 8.90976796,13.0085459 C8.90976796,12.814813 8.84110619,12.643875 8.70378265,12.4957276 C8.55501402,12.347578 8.36905818,12.262109 8.14590633,12.2393162 C7.92275448,12.2165235 7.74251789,12.2792019 7.60519435,12.4273515 Z" id="Fill-1"></path>
            </g>
        </g>
    </g>
</svg>